<svg viewBox="-116.42 -116.42 596.66 596.66" xmlns="http://www.w3.org/2000/svg">
  <defs>
    <mask id="m">
      <rect x="-116.42" y="-116.42" width="596.66" height="596.66" fill="white"/>
      <path fill="black" transform="translate(181.91,181.91) scale(1.25) translate(-181.91,-181.91)" d="M358.872,0.841c-3.196-1.538-7.014-0.931-9.572,1.526c-19.515,18.728-53.141,46.415-102.511,71.961c-2.159,1.118-3.737,3.106-4.333,5.463c-4.028,15.908-11.933,33.271-23.492,51.607l-4.705,7.462l8.772-38.205c0.715-3.115-0.378-6.368-2.828-8.42c-2.451-2.052-5.846-2.556-8.786-1.303l-1.015,0.428C110.79,133.291,81.352,198.24,72.67,233.22c-3.013,12.141-4.516,24.163-4.465,35.738c0.02,4.466,0.272,8.722,0.75,12.705l-66.39,67.703c-3.211,3.273-3.246,8.505-0.078,11.822c1.667,1.745,3.904,2.629,6.149,2.629c2.02,0,4.045-0.717,5.664-2.164l182.428-163.851c0.896,0.059-103.874,109.806-102.925,109.806c14.22,0,33.863-6.555,56.804-18.95c30.935-16.717,65.508-42.37,99.979-74.185c2.832-2.612,3.551-6.805,1.753-10.213c-1.798-3.407-5.662-5.181-9.42-4.315l-21.363,4.904l7.465-4.706c20.835-13.136,40.313-21.511,57.891-24.897c1.901-0.367,3.622-1.372,4.875-2.849c41.348-48.75,58.853-96.919,66.256-128.743c2.69-11.567,4.579-23.134,5.607-34.38C363.972,5.742,362.069,2.379,358.872,0.841z"/>
    </mask>
  </defs>
  <rect x="-116.42" y="-116.42" width="596.66" height="596.66" rx="298.33" fill="currentColor" mask="url(#m)"/>
</svg>
